<?xml version="1.0" encoding="utf-8"?>
<!-- Generator: Adobe Illustrator 16.0.0, SVG Export Plug-In . SVG Version: 6.00 Build 0)  -->
<!DOCTYPE svg PUBLIC "-//W3C//DTD SVG 1.1//EN" "http://www.w3.org/Graphics/SVG/1.1/DTD/svg11.dtd">
<svg version="1.1" id="Layer_1" xmlns="http://www.w3.org/2000/svg" xmlns:xlink="http://www.w3.org/1999/xlink" x="0px" y="0px"
	 width="100px" height="33.62px" viewBox="0 0 100 33.62" enable-background="new 0 0 100 33.62" xml:space="preserve">
<g>
	<g>
		<g>
			<path fill="#2C3E50" d="M3.645,20.145c0.054-0.729-0.372-1.183-1.279-1.361c0.275-0.729,1.114-1.121,2.517-1.176
				c2.022,0.055,3.174,0.637,3.456,1.744c0.282,1.107,0.176,2.479-0.319,4.116L5.935,30.75c-0.179,0.923,0.323,1.192,1.506,0.806
				c-0.069,1.309-1.044,1.946-2.928,1.92c-2.779,0.139-3.955-1.087-3.528-3.674L3.645,20.145z"/>
			<path fill="#2C3E50" d="M25.454,22.188l-2.887,10.296c-0.305,0.66-0.764,0.942-1.382,0.846c-2.641,0.275-3.893,0.021-3.755-0.764
				l2.828-10.149c0.137-1.363-0.088-2.136-0.671-2.32c-0.584-0.188-1.242,0.141-1.971,0.978c-0.62,1.089-1.804,4.884-3.549,11.39
				c-0.029,0.579-0.867,0.885-2.517,0.919c-1.651,0.034-2.442-0.286-2.374-0.96c0.345-1.745,1.478-5.666,3.404-11.76
				c0.357-1.033,0.069-1.596-0.866-1.691c0.275-0.867,1.114-1.259,2.517-1.176c2.158-0.083,3.211,0.398,3.156,1.443
				c0.812-0.975,1.905-1.47,3.281-1.485c2.146,0.015,3.562,0.51,4.25,1.485c0.812-0.975,1.973-1.47,3.487-1.485
				c3.879,0.015,5.537,1.886,4.973,5.612l-2.25,8.295c0.261,0.495,0.641,0.619,1.135,0.37c-0.07,1.033-0.978,1.467-2.725,1.3
				c-2.504,0.275-3.618-0.667-3.342-2.826l2.208-8.088c0.137-1.363-0.224-2.067-1.083-2.116
				C26.461,20.252,25.838,20.881,25.454,22.188z"/>
			<path fill="#2C3E50" d="M36.513,31.679c1.074-0.149,2.249-1.981,3.528-5.488c1.115-3.467,1.795-5.701,2.043-6.706
				c0.921-4.098,1.96-6.719,3.115-7.861c-0.921-0.013-2.043,0.399-3.363,1.238c-1.375,1.527-1.892,2.855-1.547,3.982
				c-2.339,0.963-3.487,0.66-3.446-0.908c0.042-1.568,0.941-2.916,2.703-4.044c1.762-1.044,3.566-1.72,5.416-2.022
				s4.109-0.426,6.779-0.372c0,0.578-0.262,1.054-0.785,1.423c-1.153,0.826-2.359,3.543-3.61,8.15
				c0.44-0.22,1.836-0.412,4.188-0.578c1.691-5.392,3.632-8.268,5.818-8.625c2.188-0.357,3.35-0.343,3.487,0.041l0.062,0.578
				l-0.371,0.33c-1.128,0.248-2.535,3.151-4.22,8.707c-1.686,5.559-2.527,9.299-2.527,11.224c0.012,0.785,0.439,1.109,1.277,0.972
				c-0.232,1.184-1.292,1.787-3.177,1.815c-2.917-0.109-3.872-1.843-2.867-5.199c0.412-2.668,1.031-5.434,1.856-8.295
				c0.014-0.041,0.027-0.075,0.041-0.103c-2.035,0.151-3.28,0.44-3.734,0.866c-0.276,0.262-0.503,0.578-0.681,0.949
				c-0.152,0.275-0.261,0.585-0.33,0.929c-0.536,2.545-1.567,4.931-3.095,7.159c-1.333,2.258-3.597,3.46-6.788,3.612
				c-2.559,0.095-3.79-0.737-3.694-2.496c0.192-1.638,0.846-2.654,1.961-3.055c0.384-0.151,0.743-0.227,1.073-0.227
				c0.482,0,0.895,0.165,1.238,0.496C35.598,30.248,35.481,31.418,36.513,31.679z"/>
			<path fill="#2C3E50" d="M63.954,25.468c-0.221,0.495-0.441,1.033-0.66,1.609c-0.428,2.642,0.254,4.023,2.043,4.147
				c1.457-0.166,2.544-0.624,3.259-1.383c0.097,2.477-1.623,3.735-5.158,3.775c-4.305,0.069-6.409-1.436-6.313-4.518
				c-0.069-2.655,0.863-5.221,2.796-7.697c1.932-2.475,4.329-3.693,7.19-3.651c2.611,0.096,3.982,1.189,4.106,3.28
				c-0.069,2.037-0.896,3.316-2.475,3.837C67.062,25.256,65.468,25.455,63.954,25.468z M64.656,24.106
				c3.041,0.288,4.603-0.393,4.684-2.042c-0.138-0.907-0.578-1.287-1.32-1.134C66.795,21.259,65.674,22.319,64.656,24.106z"/>
			<path fill="#2C3E50" d="M82.854,17.174c2.062,0.028,3.157,1.134,3.281,3.32c-0.276,2.063-1.445,3.164-3.509,3.302
				c-1.266-0.084-1.856-0.563-1.774-1.445c0.99-0.44,1.458-1.21,1.404-2.311c-0.014-0.523-0.405-0.75-1.176-0.681
				c-0.634,0.276-1.155,0.845-1.567,1.712c-0.675,1.279-1.685,4.582-3.033,9.904c-0.634,1.527-1.541,2.346-2.724,2.455l-1.424,0.083
				c-0.992-0.014-1.5-0.179-1.528-0.496c0.427-1.471,1.135-3.951,2.126-7.438c0.99-3.486,1.354-5.47,1.094-5.952l-0.743-0.269
				c0.096-1.073,1.142-1.532,3.137-1.383c0.701-0.026,1.451,0.325,2.249,1.054C79.862,17.862,81.258,17.243,82.854,17.174z"/>
			<path fill="#2C3E50" d="M92.737,25.468c-0.221,0.495-0.44,1.033-0.66,1.609c-0.427,2.642,0.253,4.023,2.041,4.147
				c1.458-0.166,2.545-0.624,3.261-1.383c0.095,2.477-1.624,3.735-5.157,3.775c-4.307,0.069-6.41-1.436-6.313-4.518
				c-0.069-2.655,0.861-5.221,2.793-7.697c1.934-2.475,4.33-3.693,7.191-3.651c2.613,0.096,3.982,1.189,4.107,3.28
				c-0.069,2.037-0.896,3.316-2.476,3.837C95.846,25.256,94.25,25.455,92.737,25.468z M93.439,24.106
				c3.039,0.288,4.601-0.393,4.682-2.042c-0.138-0.907-0.577-1.287-1.32-1.134C95.577,21.259,94.457,22.319,93.439,24.106z"/>
		</g>
	</g>
	<g>
		<path fill="#4CAAAF" d="M15.535,7.769c0-4.289-3.477-7.768-7.767-7.768C3.478,0.001,0,3.48,0,7.769
			c0,3.757,2.669,6.891,6.214,7.612l2.339,2.337c0.216,0.216,0.585,0.062,0.585-0.242v-2.069
			C12.773,14.759,15.535,11.59,15.535,7.769z"/>
		<circle fill="#419E89" cx="7.768" cy="7.771" r="5.94"/>
	</g>
</g>
</svg>
